<?xml version="1.0" encoding="iso-8859-1"?>
<!-- Generator: Adobe Illustrator 19.0.0, SVG Export Plug-In . SVG Version: 6.00 Build 0)  -->
<svg version="1.1" id="Layer_1" xmlns="http://www.w3.org/2000/svg" xmlns:xlink="http://www.w3.org/1999/xlink" x="0px" y="0px"
	 viewBox="0 0 459.003 459.003" style="enable-background:new 0 0 459.003 459.003;" xml:space="preserve">
<g>
	<g>
		<path d="M374.923,89.876H314.62V66.179c0-18.393-14.91-33.303-33.303-33.303H145.16v-7.304C145.16,11.449,133.711,0,119.588,0
			S94.017,11.449,94.017,25.572v374.96H80.012c-16.146,0-29.235,13.089-29.235,29.235s13.089,29.236,29.235,29.236h79.153
			c16.146,0,29.235-13.089,29.235-29.236c0-16.146-13.089-29.235-29.235-29.235H145.16V216.876h110.034v23.697
			c0,18.393,14.91,33.303,33.303,33.303h86.426c18.393,0,33.303-14.91,33.303-33.303V123.179
			C408.226,104.786,393.316,89.876,374.923,89.876z"/>
	</g>
</g>
<g>
</g>
<g>
</g>
<g>
</g>
<g>
</g>
<g>
</g>
<g>
</g>
<g>
</g>
<g>
</g>
<g>
</g>
<g>
</g>
<g>
</g>
<g>
</g>
<g>
</g>
<g>
</g>
<g>
</g>
</svg>
